<mxfile host="app.diagrams.net" modified="2021-03-02T11:54:40.209Z" agent="5.0 (Windows NT 10.0; Win64; x64) AppleWebKit/537.36 (KHTML, like Gecko) Chrome/88.0.4324.190 Safari/537.36" etag="VIp9Y086P-oEcvAZJN-U" version="14.4.3" type="github">
  <diagram id="biCy4x_1RAN2jeYOQGHu" name="Page-1">
    <mxGraphModel dx="1422" dy="794" grid="1" gridSize="10" guides="1" tooltips="1" connect="1" arrows="1" fold="1" page="1" pageScale="1" pageWidth="827" pageHeight="1169" math="0" shadow="0">
      <root>
        <mxCell id="0" />
        <mxCell id="1" parent="0" />
        <mxCell id="GsmYkZ_S2PjSFLC-LU7d-11" value="" style="whiteSpace=wrap;html=1;aspect=fixed;" vertex="1" parent="1">
          <mxGeometry x="310" y="330" width="290" height="290" as="geometry" />
        </mxCell>
        <mxCell id="GsmYkZ_S2PjSFLC-LU7d-2" value="" style="rounded=1;whiteSpace=wrap;html=1;" vertex="1" parent="1">
          <mxGeometry x="480" y="350" width="110" height="40" as="geometry" />
        </mxCell>
        <mxCell id="GsmYkZ_S2PjSFLC-LU7d-3" value="База данных" style="text;html=1;strokeColor=none;fillColor=none;align=center;verticalAlign=middle;whiteSpace=wrap;rounded=0;" vertex="1" parent="1">
          <mxGeometry x="490" y="360" width="90" height="20" as="geometry" />
        </mxCell>
        <mxCell id="GsmYkZ_S2PjSFLC-LU7d-5" value="" style="rounded=1;whiteSpace=wrap;html=1;" vertex="1" parent="1">
          <mxGeometry x="320" y="400" width="180" height="60" as="geometry" />
        </mxCell>
        <mxCell id="GsmYkZ_S2PjSFLC-LU7d-6" value="Здесь представлен заготовленный список ответов на типичные вопросы" style="text;html=1;strokeColor=none;fillColor=none;align=center;verticalAlign=middle;whiteSpace=wrap;rounded=0;" vertex="1" parent="1">
          <mxGeometry x="325" y="410" width="170" height="40" as="geometry" />
        </mxCell>
        <mxCell id="GsmYkZ_S2PjSFLC-LU7d-8" value="6. Не приходят уведомления" style="rounded=0;whiteSpace=wrap;html=1;" vertex="1" parent="1">
          <mxGeometry x="320" y="470" width="180" height="30" as="geometry" />
        </mxCell>
        <mxCell id="GsmYkZ_S2PjSFLC-LU7d-9" value="" style="rounded=0;whiteSpace=wrap;html=1;" vertex="1" parent="1">
          <mxGeometry x="320" y="510" width="180" height="30" as="geometry" />
        </mxCell>
        <mxCell id="GsmYkZ_S2PjSFLC-LU7d-10" value="7. Случайно удалил аккаунт" style="text;html=1;strokeColor=none;fillColor=none;align=center;verticalAlign=middle;whiteSpace=wrap;rounded=0;" vertex="1" parent="1">
          <mxGeometry x="325" y="515" width="165" height="20" as="geometry" />
        </mxCell>
        <mxCell id="GsmYkZ_S2PjSFLC-LU7d-12" value="&amp;lt;&amp;lt; Назад" style="rounded=0;whiteSpace=wrap;html=1;" vertex="1" parent="1">
          <mxGeometry x="320" y="550" width="90" height="30" as="geometry" />
        </mxCell>
        <mxCell id="GsmYkZ_S2PjSFLC-LU7d-13" value="Вперед &amp;gt;&amp;gt;" style="rounded=0;whiteSpace=wrap;html=1;" vertex="1" parent="1">
          <mxGeometry x="420" y="550" width="80" height="30" as="geometry" />
        </mxCell>
      </root>
    </mxGraphModel>
  </diagram>
</mxfile>
